<svg xmlns="http://www.w3.org/2000/svg" xmlns:xlink="http://www.w3.org/1999/xlink" width="761.728" height="435.303" viewBox="0 0 761.728 435.303">
  <defs>
    <filter id="Base" x="0" y="0" width="761.728" height="435.303" filterUnits="userSpaceOnUse">
      <feOffset dy="2" input="SourceAlpha"/>
      <feGaussianBlur stdDeviation="2.5" result="blur"/>
      <feFlood flood-color="#26334d" flood-opacity="0.161"/>
      <feComposite operator="in" in2="blur"/>
      <feComposite in="SourceGraphic"/>
    </filter>
    <filter id="Rectangle_481" x="651.85" y="56.809" width="94.646" height="34.23" filterUnits="userSpaceOnUse">
      <feOffset dy="3" input="SourceAlpha"/>
      <feGaussianBlur stdDeviation="3" result="blur-2"/>
      <feFlood flood-opacity="0.161"/>
      <feComposite operator="in" in2="blur-2"/>
      <feComposite in="SourceGraphic"/>
    </filter>
    <filter id="Rectangle_481-2" x="15.231" y="10.82" width="93.745" height="412.055" filterUnits="userSpaceOnUse">
      <feOffset dy="3" input="SourceAlpha"/>
      <feGaussianBlur stdDeviation="3" result="blur-3"/>
      <feFlood flood-opacity="0.161"/>
      <feComposite operator="in" in2="blur-3"/>
      <feComposite in="SourceGraphic"/>
    </filter>
    <filter id="Rectangle_481-3" x="100.895" y="80.254" width="645.602" height="289.42" filterUnits="userSpaceOnUse">
      <feOffset dy="3" input="SourceAlpha"/>
      <feGaussianBlur stdDeviation="3" result="blur-4"/>
      <feFlood flood-opacity="0.161"/>
      <feComposite operator="in" in2="blur-4"/>
      <feComposite in="SourceGraphic"/>
    </filter>
    <filter id="Rectangle_557" x="159.507" y="138.865" width="269.582" height="27.018" filterUnits="userSpaceOnUse">
      <feOffset dy="3" input="SourceAlpha"/>
      <feGaussianBlur stdDeviation="3" result="blur-5"/>
      <feFlood flood-opacity="0.161"/>
      <feComposite operator="in" in2="blur-5"/>
      <feComposite in="SourceGraphic"/>
    </filter>
    <filter id="Rectangle_558" x="159.507" y="151.488" width="245.235" height="27.018" filterUnits="userSpaceOnUse">
      <feOffset dy="3" input="SourceAlpha"/>
      <feGaussianBlur stdDeviation="3" result="blur-6"/>
      <feFlood flood-opacity="0.161"/>
      <feComposite operator="in" in2="blur-6"/>
      <feComposite in="SourceGraphic"/>
    </filter>
    <filter id="Rectangle_561" x="450.379" y="138.865" width="245.235" height="27.018" filterUnits="userSpaceOnUse">
      <feOffset dy="3" input="SourceAlpha"/>
      <feGaussianBlur stdDeviation="3" result="blur-7"/>
      <feFlood flood-opacity="0.161"/>
      <feComposite operator="in" in2="blur-7"/>
      <feComposite in="SourceGraphic"/>
    </filter>
    <filter id="Rectangle_574" x="471.119" y="200.633" width="103.664" height="27.018" filterUnits="userSpaceOnUse">
      <feOffset dy="3" input="SourceAlpha"/>
      <feGaussianBlur stdDeviation="3" result="blur-8"/>
      <feFlood flood-opacity="0.161"/>
      <feComposite operator="in" in2="blur-8"/>
      <feComposite in="SourceGraphic"/>
    </filter>
    <filter id="Rectangle_575" x="471.119" y="262.402" width="78.416" height="27.018" filterUnits="userSpaceOnUse">
      <feOffset dy="3" input="SourceAlpha"/>
      <feGaussianBlur stdDeviation="3" result="blur-9"/>
      <feFlood flood-opacity="0.161"/>
      <feComposite operator="in" in2="blur-9"/>
      <feComposite in="SourceGraphic"/>
    </filter>
    <filter id="Rectangle_481-4" x="159.507" y="100.992" width="93.745" height="35.133" filterUnits="userSpaceOnUse">
      <feOffset dy="3" input="SourceAlpha"/>
      <feGaussianBlur stdDeviation="3" result="blur-10"/>
      <feFlood flood-opacity="0.161"/>
      <feComposite operator="in" in2="blur-10"/>
      <feComposite in="SourceGraphic"/>
    </filter>
    <filter id="Rectangle_481-5" x="114.421" y="196.576" width="93.745" height="35.133" filterUnits="userSpaceOnUse">
      <feOffset dy="3" input="SourceAlpha"/>
      <feGaussianBlur stdDeviation="3" result="blur-11"/>
      <feFlood flood-opacity="0.161"/>
      <feComposite operator="in" in2="blur-11"/>
      <feComposite in="SourceGraphic"/>
    </filter>
    <filter id="Rectangle_481-6" x="114.421" y="240.76" width="93.745" height="45.953" filterUnits="userSpaceOnUse">
      <feOffset dy="3" input="SourceAlpha"/>
      <feGaussianBlur stdDeviation="3" result="blur-12"/>
      <feFlood flood-opacity="0.161"/>
      <feComposite operator="in" in2="blur-12"/>
      <feComposite in="SourceGraphic"/>
    </filter>
    <filter id="Rectangle_571" x="204.594" y="240.76" width="93.745" height="45.953" filterUnits="userSpaceOnUse">
      <feOffset dy="3" input="SourceAlpha"/>
      <feGaussianBlur stdDeviation="3" result="blur-13"/>
      <feFlood flood-opacity="0.161"/>
      <feComposite operator="in" in2="blur-13"/>
      <feComposite in="SourceGraphic"/>
    </filter>
    <filter id="Rectangle_556" x="602.255" y="198.379" width="67.595" height="36.035" filterUnits="userSpaceOnUse">
      <feOffset dy="3" input="SourceAlpha"/>
      <feGaussianBlur stdDeviation="3" result="blur-14"/>
      <feFlood flood-opacity="0.161"/>
      <feComposite operator="in" in2="blur-14"/>
      <feComposite in="SourceGraphic"/>
    </filter>
    <filter id="Rectangle_572" x="602.255" y="224.529" width="67.595" height="36.035" filterUnits="userSpaceOnUse">
      <feOffset dy="3" input="SourceAlpha"/>
      <feGaussianBlur stdDeviation="3" result="blur-15"/>
      <feFlood flood-opacity="0.161"/>
      <feComposite operator="in" in2="blur-15"/>
      <feComposite in="SourceGraphic"/>
    </filter>
    <filter id="Rectangle_573" x="602.255" y="250.68" width="67.595" height="36.035" filterUnits="userSpaceOnUse">
      <feOffset dy="3" input="SourceAlpha"/>
      <feGaussianBlur stdDeviation="3" result="blur-16"/>
      <feFlood flood-opacity="0.161"/>
      <feComposite operator="in" in2="blur-16"/>
      <feComposite in="SourceGraphic"/>
    </filter>
    <filter id="Rectangle_538" x="114.421" y="100.992" width="45.954" height="42.346" filterUnits="userSpaceOnUse">
      <feOffset dy="3" input="SourceAlpha"/>
      <feGaussianBlur stdDeviation="3" result="blur-17"/>
      <feFlood flood-opacity="0.161"/>
      <feComposite operator="in" in2="blur-17"/>
      <feComposite in="SourceGraphic"/>
    </filter>
  </defs>
  <g id="Better_Collaboration_Image" data-name="Better Collaboration Image" transform="translate(-197 -5143.113)">
    <g id="Group_868" data-name="Group 868" transform="translate(205 5149.113)">
      <g transform="matrix(1, 0, 0, 1, -8, -6)" filter="url(#Base)">
        <rect id="Base-2" data-name="Base" width="745.728" height="419.303" rx="33" transform="translate(8 6)" fill="#fff" stroke="#ededf2" stroke-width="1"/>
      </g>
      <line id="Line_77" data-name="Line 77" x2="713.135" transform="translate(16.231 80.704)" fill="none" stroke="#fceeff" stroke-linecap="round" stroke-width="2"/>
      <g id="Group_792" data-name="Group 792" transform="translate(652.85 56.809)">
        <g transform="matrix(1, 0, 0, 1, -660.85, -62.81)" filter="url(#Rectangle_481)">
          <rect id="Rectangle_481-7" data-name="Rectangle 481" width="76.647" height="16.231" rx="4" transform="translate(660.85 62.81)" fill="#2900ff"/>
        </g>
      </g>
      <g transform="matrix(1, 0, 0, 1, -8, -6)" filter="url(#Rectangle_481-2)">
        <rect id="Rectangle_481-8" data-name="Rectangle 481" width="75.745" height="394.054" rx="27" transform="translate(24.23 16.82)" fill="#ededf2"/>
      </g>
      <g transform="matrix(1, 0, 0, 1, -8, -6)" filter="url(#Rectangle_481-3)">
        <rect id="Rectangle_481-9" data-name="Rectangle 481" width="627.601" height="271.42" transform="translate(109.9 86.25)" fill="#ededf2"/>
      </g>
      <g transform="matrix(1, 0, 0, 1, -8, -6)" filter="url(#Rectangle_557)">
        <rect id="Rectangle_557-2" data-name="Rectangle 557" width="251.582" height="9.017" rx="4" transform="translate(168.51 144.87)" fill="#cea2e6"/>
      </g>
      <g transform="matrix(1, 0, 0, 1, -8, -6)" filter="url(#Rectangle_558)">
        <rect id="Rectangle_558-2" data-name="Rectangle 558" width="227.235" height="9.017" rx="4" transform="translate(168.51 157.49)" fill="#cea2e6"/>
      </g>
      <g transform="matrix(1, 0, 0, 1, -8, -6)" filter="url(#Rectangle_561)">
        <rect id="Rectangle_561-2" data-name="Rectangle 561" width="227.235" height="9.017" rx="4" transform="translate(459.38 144.87)" fill="#cea2e6"/>
      </g>
      <g transform="matrix(1, 0, 0, 1, -8, -6)" filter="url(#Rectangle_574)">
        <rect id="Rectangle_574-2" data-name="Rectangle 574" width="85.664" height="9.017" rx="4" transform="translate(480.12 206.63)" fill="#cea2e6"/>
      </g>
      <g transform="matrix(1, 0, 0, 1, -8, -6)" filter="url(#Rectangle_575)">
        <rect id="Rectangle_575-2" data-name="Rectangle 575" width="60.416" height="9.017" rx="4" transform="translate(480.12 268.4)" fill="#cea2e6"/>
      </g>
      <g id="Ellipse_146" data-name="Ellipse 146" transform="translate(205.208 194.773)" fill="#be63cf" stroke="#fff" stroke-width="1">
        <circle cx="10.37" cy="10.37" r="10.37" stroke="none"/>
        <circle cx="10.37" cy="10.37" r="9.87" fill="none"/>
      </g>
      <g id="Ellipse_155" data-name="Ellipse 155" transform="translate(446.87 194.773)" fill="#be63cf" stroke="#fff" stroke-width="1">
        <circle cx="10.37" cy="10.37" r="10.37" stroke="none"/>
        <circle cx="10.37" cy="10.37" r="9.87" fill="none"/>
      </g>
      <g id="Ellipse_156" data-name="Ellipse 156" transform="translate(446.87 256.09)" fill="#be63cf" stroke="#fff" stroke-width="1">
        <circle cx="10.37" cy="10.37" r="10.37" stroke="none"/>
        <circle cx="10.37" cy="10.37" r="9.87" fill="none"/>
      </g>
      <g id="Group_848" data-name="Group 848" transform="translate(160.507 100.993)">
        <g transform="matrix(1, 0, 0, 1, -168.51, -106.99)" filter="url(#Rectangle_481-4)">
          <rect id="Rectangle_481-10" data-name="Rectangle 481" width="75.745" height="17.133" rx="4" transform="translate(168.51 106.99)" fill="#6b52f9"/>
        </g>
      </g>
      <g id="Group_860" data-name="Group 860" transform="translate(115.421 196.576)">
        <g transform="matrix(1, 0, 0, 1, -123.42, -202.58)" filter="url(#Rectangle_481-5)">
          <rect id="Rectangle_481-11" data-name="Rectangle 481" width="75.745" height="17.133" rx="4" transform="translate(123.42 202.58)" fill="#6b52f9"/>
        </g>
      </g>
      <g transform="matrix(1, 0, 0, 1, -8, -6)" filter="url(#Rectangle_481-6)">
        <rect id="Rectangle_481-12" data-name="Rectangle 481" width="75.745" height="27.954" rx="4" transform="translate(123.42 246.76)" fill="#6b52f9"/>
      </g>
      <g transform="matrix(1, 0, 0, 1, -8, -6)" filter="url(#Rectangle_571)">
        <rect id="Rectangle_571-2" data-name="Rectangle 571" width="75.745" height="27.954" rx="4" transform="translate(213.59 246.76)" fill="#6b52f9"/>
      </g>
      <g transform="matrix(1, 0, 0, 1, -8, -6)" filter="url(#Rectangle_556)">
        <rect id="Rectangle_556-2" data-name="Rectangle 556" width="49.595" height="18.035" rx="9.017" transform="translate(611.25 204.38)" fill="#5433ff"/>
      </g>
      <g transform="matrix(1, 0, 0, 1, -8, -6)" filter="url(#Rectangle_572)">
        <rect id="Rectangle_572-2" data-name="Rectangle 572" width="49.595" height="18.035" rx="9.017" transform="translate(611.25 230.53)" fill="#5433ff"/>
      </g>
      <g transform="matrix(1, 0, 0, 1, -8, -6)" filter="url(#Rectangle_573)">
        <rect id="Rectangle_573-2" data-name="Rectangle 573" width="49.595" height="18.035" rx="9.017" transform="translate(611.25 256.68)" fill="#5433ff"/>
      </g>
      <g transform="matrix(1, 0, 0, 1, -8, -6)" filter="url(#Rectangle_538)">
        <rect id="Rectangle_538-2" data-name="Rectangle 538" width="27.954" height="24.347" rx="4" transform="translate(123.42 106.99)" fill="#cea2e6"/>
      </g>
      <g id="Icon_feather-download" data-name="Icon feather-download" transform="translate(170.426 248.876)">
        <path id="Path_226" data-name="Path 226" d="M16.222,22.5v2.6a1.3,1.3,0,0,1-1.3,1.3H5.8a1.3,1.3,0,0,1-1.3-1.3V22.5" transform="translate(-4.5 -14.685)" fill="none" stroke="#fff" stroke-linecap="round" stroke-linejoin="round" stroke-width="1"/>
        <path id="Path_227" data-name="Path 227" d="M10.5,15l3.256,3.256L17.012,15" transform="translate(-7.895 -10.441)" fill="none" stroke="#fff" stroke-linecap="round" stroke-linejoin="round" stroke-width="1"/>
        <path id="Path_228" data-name="Path 228" d="M18,12.315V4.5" transform="translate(-12.139 -4.5)" fill="none" stroke="#fff" stroke-linecap="round" stroke-linejoin="round" stroke-width="1"/>
      </g>
      <g id="Icon_feather-download-2" data-name="Icon feather-download" transform="translate(260.599 248.876)">
        <path id="Path_226-2" data-name="Path 226" d="M16.222,22.5v2.6a1.3,1.3,0,0,1-1.3,1.3H5.8a1.3,1.3,0,0,1-1.3-1.3V22.5" transform="translate(-4.5 -14.685)" fill="none" stroke="#fff" stroke-linecap="round" stroke-linejoin="round" stroke-width="1"/>
        <path id="Path_227-2" data-name="Path 227" d="M10.5,15l3.256,3.256L17.012,15" transform="translate(-7.895 -10.441)" fill="none" stroke="#fff" stroke-linecap="round" stroke-linejoin="round" stroke-width="1"/>
        <path id="Path_228-2" data-name="Path 228" d="M18,12.315V4.5" transform="translate(-12.139 -4.5)" fill="none" stroke="#fff" stroke-linecap="round" stroke-linejoin="round" stroke-width="1"/>
      </g>
      <path id="Path_230" data-name="Path 230" d="M0,0V34.266" transform="translate(457.626 218.669)" fill="none" stroke="#cea2e6" stroke-width="1"/>
    </g>
  </g>
</svg>
