<svg xmlns="http://www.w3.org/2000/svg" width="504.473" height="454.795" viewBox="0 0 504.473 454.795">
  <g id="Group_1017" data-name="Group 1017" transform="translate(-0.002)">
    <path id="Path_881" data-name="Path 881" d="M602.869,396.783H418.086a23.662,23.662,0,0,1-23.635-23.635V156.135A23.662,23.662,0,0,1,418.086,132.5H590L626.5,161.6V373.148A23.662,23.662,0,0,1,602.869,396.783Z" transform="translate(-289.43 -132.5)" fill="#e6e6e6"/>
    <path id="Path_882" data-name="Path 882" d="M420.782,142a16.85,16.85,0,0,0-16.831,16.831V375.844a16.85,16.85,0,0,0,16.831,16.831H605.565A16.85,16.85,0,0,0,622.4,375.844V167.573L590.313,142Z" transform="translate(-292.126 -135.196)" fill="#fff"/>
    <path id="Path_883" data-name="Path 883" d="M600.376,226.985H516.247a3.936,3.936,0,1,1,0-7.872h84.129a3.936,3.936,0,0,1,0,7.872Z" transform="translate(-322.877 -157.08)" fill="#ccc"/>
    <path id="Path_884" data-name="Path 884" d="M616.612,245.532H516.247a3.936,3.936,0,1,1,0-7.872H616.612a3.936,3.936,0,1,1,0,7.872Z" transform="translate(-322.877 -162.343)" fill="#ccc"/>
    <path id="Path_885" data-name="Path 885" d="M600.376,310.1H516.247a3.936,3.936,0,1,1,0-7.872h84.129a3.936,3.936,0,0,1,0,7.872Z" transform="translate(-322.877 -180.667)" fill="#ccc"/>
    <path id="Path_886" data-name="Path 886" d="M616.612,328.65H516.247a3.936,3.936,0,1,1,0-7.872H616.612a3.936,3.936,0,1,1,0,7.872Z" transform="translate(-322.877 -185.931)" fill="#ccc"/>
    <path id="Path_887" data-name="Path 887" d="M600.376,393.221H516.247a3.936,3.936,0,1,1,0-7.872h84.129a3.936,3.936,0,0,1,0,7.872Z" transform="translate(-322.877 -204.255)" fill="#ccc"/>
    <path id="Path_888" data-name="Path 888" d="M616.612,411.768H516.247a3.936,3.936,0,1,1,0-7.872H616.612a3.936,3.936,0,1,1,0,7.872Z" transform="translate(-322.877 -209.518)" fill="#ccc"/>
    <circle id="Ellipse_44" data-name="Ellipse 44" cx="13.911" cy="13.911" r="13.911" transform="translate(144.425 58.7)" fill="#6c63ff"/>
    <path id="Path_395" data-name="Path 395" d="M465.1,237.1a1.442,1.442,0,0,1-.868-.288l-.016-.012-3.269-2.5a1.453,1.453,0,1,1,1.768-2.306l2.118,1.624,5-6.528a1.452,1.452,0,0,1,2.036-.269h0l-.031.043.032-.043a1.454,1.454,0,0,1,.269,2.037l-5.886,7.675a1.453,1.453,0,0,1-1.156.567Z" transform="translate(-308.138 -159.181)" fill="#fff"/>
    <circle id="Ellipse_44-2" data-name="Ellipse 44" cx="13.911" cy="13.911" r="13.911" transform="translate(145.858 118.23)" fill="#ccc"/>
    <circle id="Ellipse_44-3" data-name="Ellipse 44" cx="13.911" cy="13.911" r="13.911" transform="translate(144.425 177.761)" fill="#ccc"/>
    <path id="Path_889" data-name="Path 889" d="M703.009,162.753h-28.6a7.872,7.872,0,0,1-7.872-7.872V133.759a.492.492,0,0,1,.8-.386l35.977,28.5a.492.492,0,0,1-.305.878Z" transform="translate(-366.645 -132.718)" fill="#e6e6e6"/>
    <path id="Path_890" data-name="Path 890" d="M390.6,513.461,281.268,536.506a12.189,12.189,0,0,1-14.425-9.4l-18.76-89a12.189,12.189,0,0,1,9.4-14.425L366.812,400.63a12.189,12.189,0,0,1,14.425,9.4l18.76,89A12.189,12.189,0,0,1,390.6,513.461Z" transform="translate(-247.819 -208.517)" fill="#fff"/>
    <path id="Path_891" data-name="Path 891" d="M390.6,513.461,281.268,536.506a12.189,12.189,0,0,1-14.425-9.4l-18.76-89a12.189,12.189,0,0,1,9.4-14.425L366.812,400.63a12.189,12.189,0,0,1,14.425,9.4l18.76,89A12.189,12.189,0,0,1,390.6,513.461ZM257.781,425.076a10.755,10.755,0,0,0-8.3,12.728l18.76,89a10.755,10.755,0,0,0,12.728,8.3L390.3,512.06a10.756,10.756,0,0,0,8.3-12.728l-18.76-89a10.755,10.755,0,0,0-12.728-8.3Z" transform="translate(-247.819 -208.517)" fill="#3f3d56"/>
    <path id="Path_411" data-name="Path 411" d="M381.672,440.174,326.5,451.8a1.956,1.956,0,0,1-2.313-1.334,1.884,1.884,0,0,1,1.431-2.331L381.78,436.3c2.193,1.236,1.5,3.535-.109,3.874Z" transform="translate(-269.471 -218.714)" fill="#ccc"/>
    <path id="Path_412" data-name="Path 412" d="M384.52,453.687l-55.176,11.63a1.956,1.956,0,0,1-2.313-1.334,1.884,1.884,0,0,1,1.431-2.331l56.166-11.839c2.193,1.236,1.5,3.535-.109,3.874Z" transform="translate(-270.279 -222.549)" fill="#ccc"/>
    <path id="Path_413" data-name="Path 413" d="M305.909,473.13l-16.839,3.549a2.121,2.121,0,0,1-2.511-1.637l-4.188-19.872a2.122,2.122,0,0,1,1.637-2.511l16.839-3.549a2.122,2.122,0,0,1,2.511,1.637l4.188,19.872a2.121,2.121,0,0,1-1.637,2.511Z" transform="translate(-257.611 -222.337)" fill="#ccc"/>
    <path id="Path_414" data-name="Path 414" d="M378.624,481.4l-84.208,17.75a1.956,1.956,0,0,1-2.313-1.334,1.884,1.884,0,0,1,1.431-2.331l85.2-17.958c2.193,1.236,1.5,3.535-.109,3.874Z" transform="translate(-260.367 -230.414)" fill="#ccc"/>
    <path id="Path_415" data-name="Path 415" d="M381.473,494.919l-84.208,17.75a1.956,1.956,0,0,1-2.313-1.334A1.884,1.884,0,0,1,296.384,509l85.2-17.958c2.193,1.236,1.5,3.535-.109,3.874Z" transform="translate(-261.176 -234.25)" fill="#ccc"/>
    <path id="Path_416" data-name="Path 416" d="M384.321,508.427l-84.209,17.75a1.956,1.956,0,0,1-2.313-1.334,1.884,1.884,0,0,1,1.431-2.331l85.2-17.959c2.193,1.236,1.5,3.535-.109,3.874Z" transform="translate(-261.984 -238.083)" fill="#ccc"/>
    <path id="Path_417" data-name="Path 417" d="M387.17,521.943l-84.209,17.75a1.956,1.956,0,0,1-2.313-1.334,1.884,1.884,0,0,1,1.431-2.331l85.2-17.959c2.193,1.236,1.5,3.535-.109,3.874Z" transform="translate(-262.792 -241.919)" fill="#ccc"/>
    <path id="Path_418" data-name="Path 418" d="M390.017,535.453,305.808,553.2a1.956,1.956,0,0,1-2.313-1.334,1.884,1.884,0,0,1,1.431-2.331l85.2-17.958c2.193,1.236,1.5,3.535-.109,3.874Z" transform="translate(-263.6 -245.753)" fill="#ccc"/>
    <path id="Path_892" data-name="Path 892" d="M424.672,473.6a7.537,7.537,0,0,0-.489,1.082l-34.474,8.555-6-6.2-10.546,7.827,9.549,12.015a5.729,5.729,0,0,0,6.653,1.739l37.407-15.286a7.518,7.518,0,1,0-2.1-9.728Z" transform="translate(-283.39 -228.207)" fill="#a0616a"/>
    <path id="Path_893" data-name="Path 893" d="M276.794,549.819a7.694,7.694,0,0,0,4.568-10.878L305.086,473l-16.476-2.92-18.139,65.735a7.736,7.736,0,0,0,6.323,14Z" transform="translate(-253.184 -228.301)" fill="#a0616a"/>
    <path id="Path_894" data-name="Path 894" d="M308.756,477.658l-16.267-6.243a3.45,3.45,0,0,1-1.769-4.915l8.534-15.131a9.581,9.581,0,1,1,17.87,6.918l-3.764,16.9a3.45,3.45,0,0,1-4.6,2.47Z" transform="translate(-259.867 -221.252)" fill="#6c63ff"/>
    <path id="Path_895" data-name="Path 895" d="M119.524,608.346h8.781l4.177-33.868H119.523Z" transform="translate(-33.918 -163.028)" fill="#a0616a"/>
    <path id="Path_896" data-name="Path 896" d="M364.216,750.263h17.293a11.02,11.02,0,0,1,11.02,11.02v.358H364.217Z" transform="translate(-280.85 -307.812)" fill="#2f2e41"/>
    <path id="Path_897" data-name="Path 897" d="M50.524,608.346h8.781l4.177-33.868H50.523Z" transform="translate(-14.337 -163.028)" fill="#a0616a"/>
    <path id="Path_898" data-name="Path 898" d="M295.216,750.263h17.293a11.02,11.02,0,0,1,11.02,11.02v.358H295.217Z" transform="translate(-261.269 -307.812)" fill="#2f2e41"/>
    <path id="Path_899" data-name="Path 899" d="M305.516,688.405H294.4a3.223,3.223,0,0,1-3.219-3.376l5.278-113.4.333-.009,53.658-1.4,10.5,113.465A3.223,3.223,0,0,1,358,687.2l-12.481,1a3.225,3.225,0,0,1-3.414-2.565l-15.965-80.772A1.041,1.041,0,0,0,325.09,604h0a1.042,1.042,0,0,0-1.05.867L308.678,685.8a3.23,3.23,0,0,1-3.162,2.6Z" transform="translate(-260.124 -256.719)" fill="#2f2e41"/>
    <circle id="Ellipse_269" data-name="Ellipse 269" cx="17.591" cy="17.591" r="17.591" transform="translate(48.156 178.59)" fill="#a0616a"/>
    <path id="Path_900" data-name="Path 900" d="M321.393,547.62c-8.384,0-17-2.2-24.135-8.72a3.26,3.26,0,0,1-1.052-2.757c.764-6.866,4.471-42.315,2.383-65.994a28.663,28.663,0,0,1,9.279-23.854,28.361,28.361,0,0,1,24.324-7.043h0c.219.039.438.08.657.122a28.494,28.494,0,0,1,22.761,30.318c-1.616,21.243-3.064,49.977-.79,66.227a3.218,3.218,0,0,1-1.73,3.321C347.917,541.854,334.952,547.62,321.393,547.62Z" transform="translate(-261.545 -219.42)" fill="#6c63ff"/>
    <path id="Path_901" data-name="Path 901" d="M361.839,479.666a3.446,3.446,0,0,1-1.511-2.443l-2.143-17.182a9.581,9.581,0,1,1,18.446-5.191l7.059,15.872a3.45,3.45,0,0,1-2.227,4.725l-16.786,4.671a3.446,3.446,0,0,1-2.837-.453Z" transform="translate(-279.036 -221.995)" fill="#6c63ff"/>
    <path id="Path_902" data-name="Path 902" d="M324.288,414.624a12.6,12.6,0,0,1-4.868-.881c-.681-.263-1.389-.478-2.069-.741-6.007-2.321-9.963-8.718-10.105-15.155s3.192-12.686,8.143-16.8a31.51,31.51,0,0,1,17.784-6.721c6.916-.527,14.7,1.227,18.569,6.987a6.067,6.067,0,0,1,1.139,5.244,3.356,3.356,0,0,1-.946,1.453c-1.726,1.536-3.447.381-5.206.279-2.418-.14-4.59,1.817-5.371,4.11a12.386,12.386,0,0,0,.193,7.157,17.88,17.88,0,0,1,.9,4.352,4.375,4.375,0,0,1-1.813,3.852c-1.511.913-3.5.385-5.008-.527s-2.819-2.18-4.452-2.851-3.828-.522-4.778.966a5.286,5.286,0,0,0-.6,1.744c-.852,3.883-.656,3.654-1.509,7.537Z" transform="translate(-264.681 -201.1)" fill="#2f2e41"/>
    <path id="Path_903" data-name="Path 903" d="M385.284,766.932H249.2a.716.716,0,1,1,0-1.432H385.284a.716.716,0,1,1,0,1.432Z" transform="translate(-248.008 -312.136)" fill="#ccc"/>
    <path id="Path_904" data-name="Path 904" d="M862.4,520.665l-97.447,54.66a12.189,12.189,0,0,1-16.576-4.663l-44.5-79.332a12.189,12.189,0,0,1,4.663-16.576l97.447-54.66a12.19,12.19,0,0,1,16.576,4.663l44.5,79.332A12.189,12.189,0,0,1,862.4,520.665Z" transform="translate(-376.802 -213.674)" fill="#fff"/>
    <path id="Path_905" data-name="Path 905" d="M862.4,520.665l-97.447,54.66a12.189,12.189,0,0,1-16.576-4.663l-44.5-79.332a12.189,12.189,0,0,1,4.663-16.576l97.447-54.66a12.19,12.19,0,0,1,16.576,4.663l44.5,79.332A12.189,12.189,0,0,1,862.4,520.665ZM709.247,476a10.755,10.755,0,0,0-4.114,14.626l44.5,79.332a10.755,10.755,0,0,0,14.626,4.114l97.447-54.66a10.755,10.755,0,0,0,4.114-14.626l-44.5-79.331a10.755,10.755,0,0,0-14.626-4.114Z" transform="translate(-376.802 -213.674)" fill="#3f3d56"/>
    <path id="Path_411-2" data-name="Path 411" d="M829.625,461.171l-49.18,27.586a1.956,1.956,0,0,1-2.606-.582,1.884,1.884,0,0,1,.67-2.652l50.062-28.081c2.462.524,2.487,2.925,1.053,3.729Z" transform="translate(-398.147 -224.714)" fill="#ccc"/>
    <path id="Path_412-2" data-name="Path 412" d="M836.381,473.215,787.2,500.8a1.956,1.956,0,0,1-2.606-.582,1.884,1.884,0,0,1,.67-2.652l50.062-28.081c2.462.524,2.488,2.925,1.054,3.729Z" transform="translate(-400.065 -228.132)" fill="#ccc"/>
    <path id="Path_413-2" data-name="Path 413" d="M766.219,519.8l-15.009,8.419a2.121,2.121,0,0,1-2.885-.812L738.389,509.7a2.121,2.121,0,0,1,.812-2.885l15.009-8.419a2.122,2.122,0,0,1,2.885.812l9.936,17.712a2.121,2.121,0,0,1-.812,2.885Z" transform="translate(-386.958 -236.259)" fill="#ccc"/>
    <path id="Path_414-2" data-name="Path 414" d="M839.761,497.988,764.7,540.09a1.956,1.956,0,0,1-2.606-.582,1.884,1.884,0,0,1,.67-2.652l75.941-42.6c2.462.524,2.488,2.925,1.054,3.729Z" transform="translate(-393.68 -235.162)" fill="#ccc"/>
    <path id="Path_415-2" data-name="Path 415" d="M846.519,510.036l-75.058,42.1a1.956,1.956,0,0,1-2.606-.582,1.884,1.884,0,0,1,.67-2.652l75.94-42.6c2.462.524,2.487,2.925,1.053,3.729Z" transform="translate(-395.598 -238.581)" fill="#ccc"/>
    <path id="Path_416-2" data-name="Path 416" d="M853.273,522.076l-75.057,42.1a1.956,1.956,0,0,1-2.606-.582,1.884,1.884,0,0,1,.669-2.652l75.94-42.6c2.462.524,2.488,2.925,1.054,3.729Z" transform="translate(-397.515 -241.998)" fill="#ccc"/>
    <path id="Path_417-2" data-name="Path 417" d="M860.03,534.124l-75.058,42.1a1.956,1.956,0,0,1-2.606-.582,1.884,1.884,0,0,1,.669-2.652l75.941-42.6c2.462.524,2.487,2.925,1.053,3.729Z" transform="translate(-399.432 -245.417)" fill="#ccc"/>
    <path id="Path_418-2" data-name="Path 418" d="M866.784,546.165l-75.058,42.1a1.956,1.956,0,0,1-2.606-.582,1.885,1.885,0,0,1,.67-2.652l75.941-42.6c2.462.524,2.487,2.925,1.053,3.729Z" transform="translate(-401.349 -248.834)" fill="#ccc"/>
    <path id="Path_906" data-name="Path 906" d="M872.909,579.559a6.771,6.771,0,0,0-4.5-9.357l-2.041-23.975-9.817,7.744L860,575.55a6.808,6.808,0,0,0,12.913,4.009Z" transform="translate(-420.569 -249.91)" fill="#ffb8b8"/>
    <path id="Path_907" data-name="Path 907" d="M859.022,542.771l-8.153.972a3.03,3.03,0,0,1-3.386-2.878l-1.189-27.5L830.84,471.143a8.7,8.7,0,0,1,.459-8.285,11.367,11.367,0,0,1,1.295-1.671,8.673,8.673,0,0,1,7.565-2.686,9.043,9.043,0,0,1,6.792,4.72L857.03,484.34a59.992,59.992,0,0,1,5.8,28.343L861.69,539.89a3.028,3.028,0,0,1-2.628,2.876Z" transform="translate(-413.034 -224.99)" fill="#6c63ff"/>
    <path id="Path_908" data-name="Path 908" d="M653.635,598.112l-7.559,3.318-16.394-27.576,11.156-4.9Z" transform="translate(-178.694 -161.462)" fill="#ffb8b8"/>
    <path id="Path_909" data-name="Path 909" d="M908.069,747.332,883.7,758.03l-.135-.308a10.36,10.36,0,0,1,5.322-13.651h0l14.886-6.534Z" transform="translate(-427.984 -304.201)" fill="#2f2e41"/>
    <path id="Path_910" data-name="Path 910" d="M516.61,609.861h-8.255l-3.927-31.841h12.184Z" transform="translate(-143.149 -164.034)" fill="#ffb8b8"/>
    <path id="Path_911" data-name="Path 911" d="M761.648,761.911H735.031v-.337a10.36,10.36,0,0,1,10.36-10.36h16.257Z" transform="translate(-386.082 -308.082)" fill="#2f2e41"/>
    <path id="Path_912" data-name="Path 912" d="M842.972,675.9,796.987,573.281a1.01,1.01,0,0,0-1.9.135l-28.019,99.12a3.013,3.013,0,0,1-3.225,2.221l-15.3-1.53a3.047,3.047,0,0,1-2.72-3.26c4.867-60.537,12.54-117.672,35.525-155.075l.122-.2,34.768,6.818,46.417,147.808a3.043,3.043,0,0,1-1.971,3.77l-14,4.5a3.019,3.019,0,0,1-3.71-1.685Z" transform="translate(-389.141 -240.961)" fill="#2f2e41"/>
    <circle id="Ellipse_270" data-name="Ellipse 270" cx="16.538" cy="16.538" r="16.538" transform="translate(392.591 188.287)" fill="#ffb8b8"/>
    <path id="Path_913" data-name="Path 913" d="M791.658,499.092l-.211-.043-.05-.209a71.937,71.937,0,0,1-.158-30.515,23.97,23.97,0,0,1,24-19.391h0a24.009,24.009,0,0,1,23.505,23.084c.709,18.644-6.91,34.808-6.987,34.969l-.113.237Z" transform="translate(-401.592 -222.298)" fill="#6c63ff"/>
    <path id="Path_914" data-name="Path 914" d="M727.43,551.958a6.771,6.771,0,0,0,5.43-8.849l19.048-14.7-11.827-4.058-16.276,14.582a6.808,6.808,0,0,0,3.624,13.026Z" transform="translate(-381.698 -243.701)" fill="#ffb8b8"/>
    <path id="Path_915" data-name="Path 915" d="M741.184,520.763a3.019,3.019,0,0,1-3.869-.682l-5.233-6.327a3.03,3.03,0,0,1,.586-4.4l22.477-15.9,27.12-35.857a8.7,8.7,0,0,1,7.214-4.1,11.351,11.351,0,0,1,2.105.184h0a8.67,8.67,0,0,1,6.355,4.9,9.043,9.043,0,0,1-.289,8.265L777.57,499.37l-.044.071Z" transform="translate(-385.048 -223.594)" fill="#6c63ff"/>
    <path id="Path_916" data-name="Path 916" d="M814.165,405.918c-1.219-2.005-3.909-2.572-6.244-2.343s-4.606,1.05-6.953,1.031c-6.515-.05-11.544-7.991-8.805-13.9,2.246-4.848,7.857-6.977,12.932-8.648,10.641-3.5,22.865-6.869,32.522-1.189a20.207,20.207,0,0,1,9.726,18.006c-.217,4.47-1.929,9.062-.481,13.3,1.67,4.886,6.967,7.507,11.972,8.775,8.774,2.223,18.025,1.865,26.854,3.858s17.876,7.287,20.256,16.02c1.563,5.736-.068,11.911-2.769,17.207A44.565,44.565,0,0,1,841,476.266c-10.674-6.232-18.379-16.766-22.974-28.24a94.566,94.566,0,0,1-5.466-20.77,46.2,46.2,0,0,1,1.708-19.849A1.824,1.824,0,0,0,814.165,405.918Z" transform="translate(-402.079 -202.118)" fill="#2f2e41"/>
    <path id="Path_917" data-name="Path 917" d="M852.284,766.932H716.2a.716.716,0,1,1,0-1.432H852.284a.716.716,0,1,1,0,1.432Z" transform="translate(-380.536 -312.136)" fill="#ccc"/>
  </g>
</svg>
